# Blender v2.75 (sub 0) OBJ File: 'seagull.blend'
# www.blender.org
mtllib seagull.mtl
o Cube.006_Cube.001
v 8.136636 -0.117244 -0.149453
v 8.193778 -0.135402 -0.149453
v 8.193778 -0.135402 -0.106249
v 8.136636 -0.117244 -0.106249
v 8.150877 -0.109012 -0.149453
v 8.197459 -0.123815 -0.149453
v 8.422530 -0.203445 -0.192554
v 8.422530 -0.203446 -0.063147
v 8.197459 -0.123815 -0.106249
v 8.150877 -0.109012 -0.106249
v 8.426991 -0.191616 -0.192554
v 8.426991 -0.191616 -0.063147
v 8.136636 -0.117244 0.104528
v 8.193778 -0.135402 0.104528
v 8.193778 -0.135402 0.147733
v 8.136636 -0.117244 0.147733
v 8.073597 -0.152856 0.189104
v 8.150875 -0.109013 0.104528
v 8.197459 -0.123815 0.104528
v 8.422528 -0.203445 0.061427
v 8.422528 -0.203445 0.190834
v 8.197459 -0.123815 0.147733
v 8.150875 -0.109013 0.147733
v 8.073597 -0.153680 -0.000000
v 8.426991 -0.191616 0.190834
v 8.426991 -0.191616 0.061427
v 8.456847 0.067839 0.162917
v 7.219158 -0.182655 0.142614
v 7.219206 -0.182646 -0.000000
v 8.456847 0.067839 -0.000217
v 8.456847 0.074948 0.226358
v 8.073597 -0.141721 0.264234
v 7.105306 -0.163566 0.132139
v 7.104990 -0.163419 0.000000
v 7.219111 -0.182738 -0.154496
v 8.073597 -0.153591 -0.201777
v 8.456848 0.067839 -0.175245
v 8.917787 -0.109219 0.383609
v 7.219246 -0.156373 0.201284
v 6.992879 -0.115593 0.121663
v 6.992740 -0.115378 0.000000
v 7.105215 -0.163499 -0.142504
v 7.219194 -0.156861 -0.203676
v 8.917786 -0.109219 -0.000218
v 8.917787 -0.109219 0.276137
v 8.073597 -0.143745 -0.265851
v 8.917786 -0.109219 -0.297005
v 8.087488 0.177467 0.250496
v 8.456755 0.074843 0.226358
v 8.922754 -0.099607 0.383609
v 7.757393 0.007687 0.253151
v 7.105920 -0.137575 0.187987
v 6.668089 0.008175 0.000000
v 6.992881 -0.115545 -0.130877
v 7.105657 -0.137942 -0.185864
v 8.922755 -0.099607 -0.000218
v 8.922754 -0.099607 0.276137
v 8.456848 0.074948 -0.226576
v 8.917786 -0.109219 -0.384044
v 8.922755 -0.099607 -0.297005
v 8.456753 0.087888 0.162917
v 7.219974 0.100975 0.196940
v 7.108964 0.115677 0.182213
v 6.993485 -0.090059 0.168977
v 6.668818 0.023132 0.036886
v 6.668872 0.024238 -0.039613
v 6.993461 -0.089979 -0.169259
v 7.108702 0.112086 -0.184681
v 7.757392 0.003477 -0.259985
v 8.456753 0.087888 -0.000217
v 8.087489 0.177709 -0.301109
v 8.456755 0.074843 -0.226576
v 8.922755 -0.099607 -0.384044
v 8.456753 0.087888 -0.175245
v 8.087489 0.222136 0.181347
v 7.770234 0.075861 0.244281
v 7.198932 0.137917 0.339047
v 7.086340 0.150827 0.335218
v 6.569965 0.027752 0.037866
v 6.569216 0.012398 0.000000
v 6.570022 0.028887 -0.040665
v 6.670355 0.054584 -0.051231
v 7.219936 0.096160 -0.200807
v 7.770235 0.071070 -0.248467
v 8.087490 0.221848 -0.233374
v 8.087489 0.231314 -0.000000
v 7.219171 0.191335 0.139269
v 7.219995 0.156797 0.193034
v 7.746597 0.026998 0.323928
v 7.109502 0.169310 0.179406
v 7.086497 0.202793 0.320713
v 6.948312 0.282357 0.187771
v 6.670354 0.054584 0.051231
v 6.417219 0.023346 0.027604
v 6.416672 0.012153 0.000000
v 6.570258 0.033723 -0.052591
v 6.417258 0.024174 -0.029644
v 6.672479 0.098089 -0.051231
v 6.948217 0.282178 -0.189018
v 7.086250 0.144968 -0.340352
v 7.746598 0.015634 -0.337144
v 7.198889 0.132011 -0.345156
v 7.219984 0.153671 -0.196332
v 7.219133 0.189560 -0.151091
v 7.759171 0.093152 0.303237
v 7.243929 0.191865 0.532959
v 7.151912 0.207705 0.525472
v 7.198972 0.192841 0.322939
v 7.155769 0.251922 0.527196
v 6.570258 0.033723 0.052592
v 6.417431 0.027699 0.038339
v 6.335774 0.019027 0.000000
v 6.417431 0.027699 -0.038338
v 6.573723 0.104700 -0.052591
v 7.109331 0.166010 -0.181320
v 7.086384 0.194676 -0.323964
v 7.759171 0.081048 -0.312435
v 7.219064 0.203381 -0.000000
v 6.948383 0.282308 0.164393
v 7.808695 0.102470 0.614866
v 7.247932 0.241750 0.532598
v 6.672479 0.098089 0.051231
v 6.573723 0.104700 0.052592
v 6.421939 0.120029 0.055895
v 6.421939 0.120029 -0.055895
v 6.672479 0.098089 -0.043936
v 6.573723 0.104700 -0.045103
v 6.948320 0.282430 -0.162440
v 7.198936 0.183132 -0.328409
v 7.155747 0.247078 -0.533831
v 7.151891 0.205126 -0.533201
v 7.243918 0.186566 -0.544000
v 7.808695 0.087816 -0.635973
v 6.948450 0.283183 0.000012
v 7.824860 0.157458 0.608776
v 7.528891 0.398433 0.998014
v 7.463190 0.426348 1.005986
v 7.467604 0.454878 0.991748
v 6.672479 0.098089 0.044778
v 7.533503 0.433615 0.980378
v 6.573723 0.104700 0.045967
v 6.421939 0.120029 0.048855
v 6.421939 0.120029 0.000000
v 6.421939 0.120029 -0.047936
v 6.672479 0.098089 0.000000
v 6.573723 0.104700 0.000000
v 7.247932 0.231959 -0.542603
v 7.824860 0.142282 -0.627664
v 7.994452 0.288198 0.998934
v 7.944537 0.303263 1.006404
v 8.008125 0.324574 0.976351
v 7.467603 0.446773 -1.013860
v 7.533501 0.422081 -1.006091
v 7.463188 0.420885 -1.029771
v 7.528889 0.395393 -1.022584
v 7.994451 0.274373 -1.036917
v 8.016542 0.594052 1.404660
v 8.002505 0.599631 1.406236
v 8.005822 0.619269 1.394446
v 8.019901 0.613942 1.392719
v 8.092344 0.439305 1.210798
v 8.008123 0.305561 -1.013047
v 7.944535 0.294465 -1.042244
v 8.086667 0.418842 1.224525
v 8.063526 0.476663 1.283970
v 8.005821 0.617611 -1.418627
v 8.002503 0.598587 -1.431383
v 8.019900 0.612205 -1.417168
v 8.092342 0.428700 -1.244196
v 8.016541 0.592937 -1.430088
v 8.086666 0.408948 -1.258927
v 8.063525 0.469666 -1.315411
vn -0.039500 -0.925700 0.376100
vn -0.039500 -0.925700 -0.376200
vn 0.001500 -0.926700 0.375700
vn 0.055400 -0.557200 -0.828600
vn 0.001500 -0.926700 -0.375800
vn 0.059400 -0.614200 0.786900
vn -0.078500 -0.923300 0.375900
vn 0.001500 -0.926700 -0.375700
vn -0.078400 -0.923300 -0.375900
vn 0.013700 -0.000700 -0.999900
vn 0.013700 -0.000700 0.999900
vn -0.038900 -0.104900 0.993700
vn -0.406900 -0.151400 0.900800
vn -0.038900 -0.104900 -0.993700
vn -0.406900 -0.151400 -0.900800
vn 0.066800 0.997800 0.000000
vn -0.760800 0.649000 0.000000
vn 0.100500 0.994900 0.000000
vn -0.302800 -0.953000 0.000000
vn -0.000000 -0.000000 -1.000000
vn -0.285100 -0.958500 -0.000000
vn -0.000000 -0.000000 1.000000
vn 0.302800 0.953000 0.000000
vn -0.167800 0.058400 -0.984100
vn -0.167800 0.058400 0.984100
vn 0.935600 -0.352900 -0.000000
vn 0.283300 0.959000 0.000000
vn -0.302900 -0.953000 0.000000
vn 0.495700 -0.868500 0.003300
vn 0.935600 -0.353000 -0.000000
vn 0.500400 -0.865800 0.001900
vn 0.034300 -0.999400 0.002500
vn 0.499500 -0.858900 0.113100
vn 0.007800 -0.963000 0.269300
vn -0.165700 -0.986200 -0.000400
vn 0.034000 -0.999400 -0.000000
vn 0.499900 -0.866100 -0.000300
vn 0.500400 -0.865800 -0.000200
vn -0.374300 -0.926500 0.038500
vn -0.191600 -0.892400 0.408500
vn -0.392900 -0.919600 -0.000600
vn -0.166300 -0.986100 0.000500
vn 0.004300 -0.953700 -0.300800
vn -0.358600 -0.933500 0.000000
vn 0.502100 -0.855600 -0.125700
vn 0.076100 0.039600 0.996300
vn -0.269800 0.138300 0.952900
vn -0.067400 0.025500 0.997400
vn -0.401300 -0.817500 0.413100
vn -0.383200 -0.919500 0.087600
vn -0.393000 -0.919500 0.000300
vn -0.205800 -0.854800 -0.476300
vn 0.888300 -0.459200 -0.000000
vn -0.376900 -0.925000 -0.047500
vn 0.302300 0.874000 0.380400
vn 0.888400 -0.459100 -0.000000
vn -0.120900 0.020600 0.992500
vn -0.385300 -0.918600 -0.087700
vn -0.393700 -0.777100 -0.491000
vn -0.147900 0.009100 -0.989000
vn 0.373300 0.927700 0.000000
vn 0.165800 -0.114600 -0.979500
vn 0.888300 -0.459300 -0.000000
vn 0.343000 0.936600 0.071500
vn -0.188400 -0.956100 0.224500
vn -0.137300 -0.966700 0.215800
vn -0.053900 -0.018000 0.998400
vn -0.470300 -0.639900 0.607700
vn -0.469900 -0.578700 -0.666500
vn -0.270100 0.138500 -0.952800
vn 0.337500 0.937200 -0.088400
vn -0.055900 0.839100 0.541100
vn -0.988700 -0.017900 -0.149100
vn -0.056500 -0.025300 -0.998100
vn -0.143800 -0.968900 -0.201100
vn 0.975100 -0.139200 -0.172900
vn -0.194300 -0.964100 -0.181000
vn 0.352400 0.935500 0.024900
vn -0.095600 -0.067400 -0.993100
vn -0.088500 0.812500 -0.576200
vn 0.344400 0.846300 -0.406400
vn 0.353000 0.935400 -0.021700
vn -0.035300 0.997200 0.066000
vn 0.256200 0.647400 0.717800
vn 0.162500 0.956500 -0.242500
vn 0.969400 -0.138800 0.202500
vn -0.186400 -0.938200 0.291600
vn -0.149100 -0.937800 0.313500
vn 0.113700 0.966700 -0.229400
vn -0.950100 0.079700 0.301600
vn -0.384900 -0.081400 0.919400
vn -0.386800 -0.083800 -0.918400
vn -0.989000 -0.020600 0.146300
vn 0.167000 0.971500 0.168100
vn -0.037400 0.997500 -0.060400
vn 0.955200 -0.258500 -0.144100
vn 0.104100 0.961100 -0.256000
vn -0.556900 0.830600 -0.004500
vn 0.120600 0.974900 0.187000
vn -0.951600 0.091900 -0.293300
vn -0.168000 -0.932200 -0.320500
vn -0.202600 -0.937700 -0.282400
vn 0.953400 -0.267200 0.140300
vn 0.229600 0.602200 -0.764600
vn 0.303600 0.952800 -0.002600
vn 0.166700 0.954600 -0.246900
vn -0.554500 0.832200 -0.002700
vn -0.556700 0.830700 -0.002700
vn 0.141400 0.953300 0.267000
vn 0.175500 0.955600 0.236700
vn -0.556600 0.830700 0.003300
vn -0.204500 -0.841200 0.500500
vn -0.227700 -0.826300 0.515100
vn -0.856200 0.180600 0.484000
vn 0.154300 0.865900 -0.475800
vn 0.890100 -0.372900 -0.262000
vn 0.190200 0.853500 -0.485100
vn -0.862300 0.209000 -0.461300
vn 0.216200 0.846400 0.486600
vn -0.242500 -0.826500 -0.508100
vn -0.227100 -0.835500 -0.500300
vn 0.885800 -0.398200 0.238500
vn -0.181400 -0.848100 0.497900
vn -0.208600 -0.771500 0.601000
vn -0.233600 -0.737000 0.634300
vn -0.620300 0.447600 0.644100
vn 0.176200 0.807400 -0.563000
vn 0.223000 0.797500 -0.560600
vn 0.209200 0.856400 0.472100
vn -0.274600 -0.816800 -0.507300
vn 0.907800 -0.396400 -0.136700
vn -0.249800 -0.778700 0.575400
vn 0.277400 0.459600 0.843700
vn -0.617400 0.496000 -0.610600
vn 0.216700 0.762600 0.609500
vn 0.242600 0.769400 0.590900
vn -0.223800 -0.744300 -0.629200
vn -0.235500 -0.748600 -0.619800
vn 0.899100 -0.424000 0.108900
vn -0.313300 -0.739200 -0.596100
vn 0.935300 0.015400 0.353400
vn 0.277400 0.501200 -0.819600
vn 0.935300 0.033000 -0.352200
usemtl Material.005
s off
f 53//1 65//1 79//1 80//1
f 66//2 53//2 80//2 81//2
f 80//3 79//3 94//3 95//3
f 81//4 96//4 82//4 66//4
f 81//5 80//5 95//5 97//5
f 110//6 79//6 65//6 93//6
f 79//3 110//3 111//3 94//3
f 95//7 94//7 111//7 112//7
f 96//8 81//8 97//8 113//8
f 113//9 97//9 95//9 112//9
f 98//10 82//10 96//10 114//10
f 93//11 122//11 123//11 110//11
f 110//12 123//12 124//12 111//12
f 111//13 124//13 112//13
f 113//14 125//14 114//14 96//14
f 125//15 113//15 112//15
f 126//16 98//16 114//16 127//16
f 122//16 139//16 141//16 123//16
f 124//17 142//17 143//17 112//17
f 143//17 144//17 125//17 112//17
f 145//16 126//16 127//16 146//16
f 127//18 114//18 125//18 144//18
f 139//16 145//16 146//16 141//16
f 123//18 141//18 142//18 124//18
f 141//18 146//18 143//18 142//18
f 146//18 127//18 144//18 143//18
usemtl Material
f 1//19 2//19 3//19 4//19
f 5//20 6//20 2//20 1//20
f 3//21 2//21 7//21 8//21
f 4//22 3//22 9//22 10//22
f 10//23 9//23 6//23 5//23
f 6//24 11//24 7//24 2//24
f 3//25 8//25 12//25 9//25
f 8//26 7//26 11//26 12//26
f 6//27 9//27 12//27 11//27
f 13//28 14//28 15//28 16//28
f 23//29 17//29 24//29 18//29 13//29 16//29
f 18//20 19//20 14//20 13//20
f 15//21 14//21 20//21 21//21
f 16//22 15//22 22//22 23//22
f 23//23 22//23 19//23 18//23
f 14//24 19//24 26//24 20//24
f 21//25 25//25 22//25 15//25
f 21//30 20//30 26//30 25//30
f 23//31 18//31 24//31 30//31 27//31 17//31
f 28//32 29//32 24//32 17//32
f 19//27 22//27 25//27 26//27
f 27//33 31//33 32//33 17//33
f 17//34 32//34 39//34 28//34
f 33//35 34//35 29//35 28//35
f 29//36 35//36 36//36 24//36
f 4//37 10//37 24//37 36//37 5//37 1//37
f 10//38 5//38 36//38 37//38 30//38 24//38
f 31//39 27//39 45//39 38//39
f 28//40 39//40 52//40 33//40
f 40//41 41//41 34//41 33//41
f 34//42 42//42 35//42 29//42
f 35//43 43//43 46//43 36//43
f 27//44 30//44 44//44 45//44
f 36//45 46//45 58//45 37//45
f 37//44 47//44 44//44 30//44
f 48//46 32//46 31//46 49//46
f 38//47 50//47 49//47 31//47
f 32//48 48//48 88//48 76//48 51//48 62//48 39//48
f 33//49 52//49 64//49 40//49
f 41//50 40//50 65//50 53//50
f 41//51 54//51 42//51 34//51
f 43//52 35//52 42//52 55//52
f 56//53 57//53 45//53 44//53
f 47//54 37//54 58//54 59//54
f 56//53 44//53 47//53 60//53
f 49//55 61//55 75//55 48//55
f 57//56 50//56 38//56 45//56
f 62//57 63//57 52//57 39//57
f 53//58 66//58 54//58 41//58
f 54//59 67//59 55//59 42//59
f 55//60 68//60 83//60 43//60
f 70//61 61//61 57//61 56//61
f 46//62 71//62 72//62 58//62
f 60//63 47//63 59//63 73//63
f 70//61 56//61 60//61 74//61
f 61//64 49//64 50//64 57//64
f 62//65 51//65 89//65 77//65
f 63//66 62//66 77//66 78//66
f 52//67 63//67 90//67 92//67 64//67
f 40//68 64//68 93//68 65//68
f 66//69 82//69 67//69 54//69
f 72//70 73//70 59//70 58//70
f 73//71 72//71 74//71 60//71
f 87//72 88//72 48//72 75//72
f 90//73 63//73 78//73 91//73
f 115//74 68//74 55//74 67//74 99//74
f 68//75 100//75 102//75 83//75
f 69//76 101//76 117//76 84//76
f 83//77 102//77 101//77 69//77
f 86//78 75//78 61//78 70//78
f 46//79 43//79 83//79 69//79 84//79 103//79 71//79
f 85//80 71//80 103//80 104//80
f 74//81 72//81 71//81 85//81
f 85//82 86//82 70//82 74//82
f 75//83 86//83 118//83 87//83
f 87//84 119//84 92//84 90//84 88//84
f 76//85 88//85 108//85 105//85
f 105//86 89//86 51//86 76//86
f 77//87 89//87 120//87 106//87
f 78//88 77//88 106//88 107//88
f 91//89 108//89 88//89 90//89
f 91//90 78//90 107//90 109//90
f 64//91 92//91 122//91 93//91
f 99//92 67//92 82//92 98//92
f 115//93 116//93 100//93 68//93
f 84//94 117//94 129//94 103//94
f 104//95 118//95 86//95 85//95
f 89//96 105//96 135//96 120//96
f 108//97 91//97 109//97 121//97
f 128//98 99//98 98//98 126//98
f 116//99 115//99 103//99 129//99
f 116//100 130//100 131//100 100//100
f 100//101 131//101 132//101 102//101
f 102//102 132//102 133//102 101//102
f 101//103 133//103 148//103 117//103
f 103//104 115//104 99//104 128//104 104//104
f 128//105 134//105 119//105 87//105 118//105 104//105
f 105//106 108//106 121//106 135//106
f 92//107 119//107 139//107 122//107
f 134//108 128//108 126//108 145//108
f 129//109 147//109 130//109 116//109
f 117//110 148//110 147//110 129//110
f 119//111 134//111 145//111 139//111
usemtl Material.001
f 106//112 120//112 150//112 136//112
f 107//113 106//113 136//113 137//113
f 109//114 107//114 137//114 138//114
f 121//115 109//115 138//115 140//115
f 120//116 135//116 151//116 149//116
f 135//117 121//117 140//117 151//117
f 130//118 152//118 154//118 131//118
f 147//119 153//119 152//119 130//119
f 131//120 154//120 155//120 132//120
f 132//121 155//121 163//121 133//121
f 133//122 156//122 162//122 148//122
f 120//123 149//123 150//123
f 136//124 150//124 165//124 157//124
f 137//125 136//125 157//125 158//125
f 138//126 137//126 158//126 159//126
f 140//127 138//127 159//127 160//127
f 151//128 140//128 160//128 161//128
f 148//129 162//129 153//129 147//129
f 133//130 163//130 156//130
f 149//131 151//131 161//131 164//131
f 150//132 149//132 164//132 165//132
f 160//133 159//133 158//133 157//133
f 152//134 166//134 167//134 154//134
f 153//135 168//135 166//135 152//135
f 162//136 169//136 168//136 153//136
f 154//137 167//137 170//137 155//137
f 155//138 170//138 172//138 163//138
f 156//139 171//139 169//139 162//139
f 163//140 172//140 171//140 156//140
f 157//141 165//141 164//141 161//141 160//141
f 168//142 170//142 167//142 166//142
f 168//143 169//143 171//143 172//143 170//143
